<?xml version="1.0" standalone="no"?>
<!DOCTYPE svg PUBLIC "-//W3C//DTD SVG 20010904//EN"
 "http://www.w3.org/TR/2001/REC-SVG-20010904/DTD/svg10.dtd">
<svg version="1.0" xmlns="http://www.w3.org/2000/svg"
 width="192.000000pt" height="192.000000pt" viewBox="0 0 192.000000 192.000000"
 preserveAspectRatio="xMidYMid meet">
<metadata>
Created by potrace 1.16, written by Peter Selinger 2001-2019
</metadata>
<g transform="translate(0.000000,192.000000) scale(0.100000,-0.100000)"
fill="#000000" stroke="none">
<path d="M0 950 l0 -270 960 0 960 0 0 270 0 270 -960 0 -960 0 0 -270z m1910
0 l0 -250 -950 0 -950 0 0 250 0 250 950 0 950 0 0 -250z"/>
<path d="M50 955 l0 -215 455 0 455 0 -2 213 -3 212 -452 3 -453 2 0 -215z"/>
</g>
</svg>
